<mxfile host="app.diagrams.net" agent="Mozilla/5.0 (Windows NT 10.0; Win64; x64) AppleWebKit/537.36 (KHTML, like Gecko) Chrome/131.0.0.0 Safari/537.36 Edg/131.0.0.0" version="24.8.9">
  <diagram name="第 1 页" id="DXSbw2I4x66LhqobBu3a">
    <mxGraphModel dx="837" dy="1128" grid="1" gridSize="10" guides="1" tooltips="1" connect="1" arrows="1" fold="1" page="1" pageScale="1" pageWidth="827" pageHeight="1169" math="0" shadow="0">
      <root>
        <mxCell id="0" />
        <mxCell id="1" parent="0" />
        <mxCell id="MCmSqlo72t7WivyZ8LUE-1" value="&lt;font face=&quot;宋体&quot; style=&quot;font-size: 18px;&quot;&gt;基于量化与反事实推理的多模态序列推荐算法研究&lt;/font&gt;" style="rounded=0;whiteSpace=wrap;html=1;" vertex="1" parent="1">
          <mxGeometry x="159" y="220" width="540" height="40" as="geometry" />
        </mxCell>
        <mxCell id="MCmSqlo72t7WivyZ8LUE-2" value="" style="rounded=0;whiteSpace=wrap;html=1;dashed=1;dashPattern=12 12;" vertex="1" parent="1">
          <mxGeometry x="9" y="320" width="850" height="320" as="geometry" />
        </mxCell>
        <mxCell id="MCmSqlo72t7WivyZ8LUE-8" style="edgeStyle=orthogonalEdgeStyle;rounded=0;orthogonalLoop=1;jettySize=auto;html=1;exitX=0.5;exitY=1;exitDx=0;exitDy=0;entryX=0.5;entryY=0;entryDx=0;entryDy=0;strokeWidth=2;" edge="1" parent="1" source="MCmSqlo72t7WivyZ8LUE-3" target="MCmSqlo72t7WivyZ8LUE-7">
          <mxGeometry relative="1" as="geometry" />
        </mxCell>
        <mxCell id="MCmSqlo72t7WivyZ8LUE-3" value="&lt;font style=&quot;font-size: 18px;&quot; face=&quot;宋体&quot;&gt;&lt;span style=&quot;line-height: 150%;&quot;&gt;模态特征与&lt;/span&gt;&lt;span style=&quot;line-height: 150%;&quot; lang=&quot;EN-US&quot;&gt;ID&lt;/span&gt;&lt;span style=&quot;line-height: 150%;&quot;&gt;特征相互侵入，导致训练过程中两者优化不足&lt;/span&gt;&lt;/font&gt;" style="rounded=0;whiteSpace=wrap;html=1;" vertex="1" parent="1">
          <mxGeometry x="19" y="330" width="260" height="60" as="geometry" />
        </mxCell>
        <mxCell id="MCmSqlo72t7WivyZ8LUE-17" style="edgeStyle=orthogonalEdgeStyle;rounded=0;orthogonalLoop=1;jettySize=auto;html=1;exitX=0.5;exitY=1;exitDx=0;exitDy=0;strokeWidth=2;" edge="1" parent="1" source="MCmSqlo72t7WivyZ8LUE-4" target="MCmSqlo72t7WivyZ8LUE-10">
          <mxGeometry relative="1" as="geometry" />
        </mxCell>
        <mxCell id="MCmSqlo72t7WivyZ8LUE-4" value="&lt;font face=&quot;宋体&quot;&gt;&lt;span style=&quot;font-size: 18px;&quot;&gt;现实数据集中缺乏明确的监督信号反映用户做出选择的动机&lt;/span&gt;&lt;/font&gt;" style="rounded=0;whiteSpace=wrap;html=1;align=center;" vertex="1" parent="1">
          <mxGeometry x="299" y="330" width="260" height="60" as="geometry" />
        </mxCell>
        <mxCell id="MCmSqlo72t7WivyZ8LUE-16" style="edgeStyle=orthogonalEdgeStyle;rounded=0;orthogonalLoop=1;jettySize=auto;html=1;exitX=0.5;exitY=1;exitDx=0;exitDy=0;entryX=0.5;entryY=0;entryDx=0;entryDy=0;strokeWidth=2;" edge="1" parent="1" source="MCmSqlo72t7WivyZ8LUE-5" target="MCmSqlo72t7WivyZ8LUE-11">
          <mxGeometry relative="1" as="geometry" />
        </mxCell>
        <mxCell id="MCmSqlo72t7WivyZ8LUE-5" value="&lt;font face=&quot;宋体&quot;&gt;&lt;span style=&quot;font-size: 18px;&quot;&gt;物品与模态表征强绑定，导致模型过于强调模态特征的影响&lt;/span&gt;&lt;/font&gt;" style="rounded=0;whiteSpace=wrap;html=1;align=center;" vertex="1" parent="1">
          <mxGeometry x="579" y="330" width="260" height="60" as="geometry" />
        </mxCell>
        <mxCell id="MCmSqlo72t7WivyZ8LUE-12" style="edgeStyle=orthogonalEdgeStyle;rounded=0;orthogonalLoop=1;jettySize=auto;html=1;exitX=0.5;exitY=1;exitDx=0;exitDy=0;entryX=0.5;entryY=0;entryDx=0;entryDy=0;strokeWidth=2;" edge="1" parent="1" source="MCmSqlo72t7WivyZ8LUE-7" target="MCmSqlo72t7WivyZ8LUE-9">
          <mxGeometry relative="1" as="geometry" />
        </mxCell>
        <mxCell id="MCmSqlo72t7WivyZ8LUE-7" value="&lt;font style=&quot;font-size: 18px;&quot; face=&quot;宋体&quot;&gt;在物品层面对模态与ID进行解耦&lt;/font&gt;" style="rounded=0;whiteSpace=wrap;html=1;" vertex="1" parent="1">
          <mxGeometry x="19" y="450" width="260" height="60" as="geometry" />
        </mxCell>
        <mxCell id="MCmSqlo72t7WivyZ8LUE-21" style="edgeStyle=orthogonalEdgeStyle;rounded=0;orthogonalLoop=1;jettySize=auto;html=1;exitX=1;exitY=0.25;exitDx=0;exitDy=0;strokeWidth=2;" edge="1" parent="1" source="MCmSqlo72t7WivyZ8LUE-9" target="MCmSqlo72t7WivyZ8LUE-10">
          <mxGeometry relative="1" as="geometry" />
        </mxCell>
        <mxCell id="MCmSqlo72t7WivyZ8LUE-9" value="&lt;font style=&quot;font-size: 18px;&quot; face=&quot;宋体&quot;&gt;使用不同的主干模型建模不同层面的序列特征&lt;/font&gt;" style="rounded=0;whiteSpace=wrap;html=1;" vertex="1" parent="1">
          <mxGeometry x="19" y="570" width="260" height="60" as="geometry" />
        </mxCell>
        <mxCell id="MCmSqlo72t7WivyZ8LUE-10" value="&lt;font style=&quot;font-size: 18px;&quot; face=&quot;宋体&quot;&gt;反事实推理损失约束&lt;/font&gt;" style="rounded=0;whiteSpace=wrap;html=1;" vertex="1" parent="1">
          <mxGeometry x="299" y="450" width="260" height="60" as="geometry" />
        </mxCell>
        <mxCell id="MCmSqlo72t7WivyZ8LUE-22" style="edgeStyle=orthogonalEdgeStyle;rounded=0;orthogonalLoop=1;jettySize=auto;html=1;exitX=0;exitY=0.5;exitDx=0;exitDy=0;entryX=1;entryY=0.5;entryDx=0;entryDy=0;strokeWidth=2;" edge="1" parent="1" source="MCmSqlo72t7WivyZ8LUE-11" target="MCmSqlo72t7WivyZ8LUE-10">
          <mxGeometry relative="1" as="geometry" />
        </mxCell>
        <mxCell id="MCmSqlo72t7WivyZ8LUE-23" style="edgeStyle=orthogonalEdgeStyle;rounded=0;orthogonalLoop=1;jettySize=auto;html=1;exitX=0.5;exitY=1;exitDx=0;exitDy=0;entryX=1;entryY=0.75;entryDx=0;entryDy=0;strokeWidth=2;" edge="1" parent="1" source="MCmSqlo72t7WivyZ8LUE-11" target="MCmSqlo72t7WivyZ8LUE-9">
          <mxGeometry relative="1" as="geometry" />
        </mxCell>
        <mxCell id="MCmSqlo72t7WivyZ8LUE-11" value="&lt;font face=&quot;宋体&quot;&gt;&lt;span style=&quot;font-size: 18px;&quot;&gt;基于向量量化的多模态表征学习&lt;/span&gt;&lt;/font&gt;" style="rounded=0;whiteSpace=wrap;html=1;align=center;" vertex="1" parent="1">
          <mxGeometry x="579" y="450" width="260" height="60" as="geometry" />
        </mxCell>
        <mxCell id="MCmSqlo72t7WivyZ8LUE-18" value="&lt;font face=&quot;宋体&quot; style=&quot;font-size: 18px;&quot;&gt;实验验证与算法对比&lt;/font&gt;" style="rounded=0;whiteSpace=wrap;html=1;" vertex="1" parent="1">
          <mxGeometry x="160" y="708" width="540" height="40" as="geometry" />
        </mxCell>
        <mxCell id="MCmSqlo72t7WivyZ8LUE-19" value="" style="shape=flexArrow;endArrow=classic;html=1;rounded=0;entryX=0.5;entryY=0;entryDx=0;entryDy=0;" edge="1" parent="1">
          <mxGeometry width="50" height="50" relative="1" as="geometry">
            <mxPoint x="434" y="266" as="sourcePoint" />
            <mxPoint x="433.9999999999999" y="316.0000000000001" as="targetPoint" />
          </mxGeometry>
        </mxCell>
        <mxCell id="MCmSqlo72t7WivyZ8LUE-20" value="" style="shape=flexArrow;endArrow=classic;html=1;rounded=0;entryX=0.5;entryY=0;entryDx=0;entryDy=0;" edge="1" parent="1">
          <mxGeometry width="50" height="50" relative="1" as="geometry">
            <mxPoint x="433.29" y="650" as="sourcePoint" />
            <mxPoint x="433.2899999999999" y="700.0000000000001" as="targetPoint" />
          </mxGeometry>
        </mxCell>
      </root>
    </mxGraphModel>
  </diagram>
</mxfile>
